<mxfile host="app.diagrams.net" modified="2023-05-24T08:13:30.748Z" agent="Mozilla/5.0 (Macintosh; Intel Mac OS X 10_15_7) AppleWebKit/605.1.15 (KHTML, like Gecko) Version/16.4 Safari/605.1.15" etag="LBRkOqIsxtWQqKsKdeqO" version="21.3.3" type="github">
  <diagram name="Page-1" id="u7EaWowFhbDuemNfaLbK">
    <mxGraphModel dx="954" dy="647" grid="1" gridSize="10" guides="1" tooltips="1" connect="1" arrows="1" fold="1" page="1" pageScale="1" pageWidth="827" pageHeight="1169" math="0" shadow="0">
      <root>
        <mxCell id="0" />
        <mxCell id="1" parent="0" />
        <mxCell id="_pH0yT8YcncMFwHLvWkE-6" value="" style="rounded=0;whiteSpace=wrap;html=1;dashed=1;" vertex="1" parent="1">
          <mxGeometry x="80" y="200" width="620" height="240" as="geometry" />
        </mxCell>
        <mxCell id="_pH0yT8YcncMFwHLvWkE-7" style="edgeStyle=orthogonalEdgeStyle;rounded=0;orthogonalLoop=1;jettySize=auto;html=1;exitX=0.5;exitY=1;exitDx=0;exitDy=0;entryX=0.5;entryY=0;entryDx=0;entryDy=0;dashed=1;" edge="1" parent="1" source="_pH0yT8YcncMFwHLvWkE-1" target="_pH0yT8YcncMFwHLvWkE-2">
          <mxGeometry relative="1" as="geometry" />
        </mxCell>
        <mxCell id="_pH0yT8YcncMFwHLvWkE-1" value="Staff" style="ellipse;whiteSpace=wrap;html=1;aspect=fixed;" vertex="1" parent="1">
          <mxGeometry x="150" y="80" width="80" height="80" as="geometry" />
        </mxCell>
        <mxCell id="_pH0yT8YcncMFwHLvWkE-8" style="edgeStyle=orthogonalEdgeStyle;rounded=0;orthogonalLoop=1;jettySize=auto;html=1;entryX=0.5;entryY=0;entryDx=0;entryDy=0;entryPerimeter=0;dashed=1;" edge="1" parent="1" source="_pH0yT8YcncMFwHLvWkE-2" target="_pH0yT8YcncMFwHLvWkE-5">
          <mxGeometry relative="1" as="geometry" />
        </mxCell>
        <mxCell id="_pH0yT8YcncMFwHLvWkE-10" style="edgeStyle=orthogonalEdgeStyle;rounded=0;orthogonalLoop=1;jettySize=auto;html=1;dashed=1;" edge="1" parent="1" source="_pH0yT8YcncMFwHLvWkE-2" target="_pH0yT8YcncMFwHLvWkE-3">
          <mxGeometry relative="1" as="geometry" />
        </mxCell>
        <mxCell id="_pH0yT8YcncMFwHLvWkE-2" value="Sign in&lt;br&gt;allow user sign in with id and password" style="rounded=1;whiteSpace=wrap;html=1;" vertex="1" parent="1">
          <mxGeometry x="130" y="230" width="120" height="60" as="geometry" />
        </mxCell>
        <mxCell id="_pH0yT8YcncMFwHLvWkE-11" style="edgeStyle=orthogonalEdgeStyle;rounded=0;orthogonalLoop=1;jettySize=auto;html=1;exitX=0.5;exitY=1;exitDx=0;exitDy=0;dashed=1;" edge="1" parent="1" source="_pH0yT8YcncMFwHLvWkE-3" target="_pH0yT8YcncMFwHLvWkE-4">
          <mxGeometry relative="1" as="geometry" />
        </mxCell>
        <mxCell id="_pH0yT8YcncMFwHLvWkE-3" value="Reset password&lt;br&gt;allow user reset password&amp;nbsp;" style="rounded=1;whiteSpace=wrap;html=1;" vertex="1" parent="1">
          <mxGeometry x="350" y="230" width="120" height="60" as="geometry" />
        </mxCell>
        <mxCell id="_pH0yT8YcncMFwHLvWkE-4" value="Email- component&lt;br&gt;send email to user" style="rounded=1;whiteSpace=wrap;html=1;" vertex="1" parent="1">
          <mxGeometry x="350" y="340" width="120" height="60" as="geometry" />
        </mxCell>
        <mxCell id="_pH0yT8YcncMFwHLvWkE-5" value="MB&lt;br&gt;" style="shape=cylinder3;whiteSpace=wrap;html=1;boundedLbl=1;backgroundOutline=1;size=15;" vertex="1" parent="1">
          <mxGeometry x="160" y="470" width="60" height="80" as="geometry" />
        </mxCell>
        <mxCell id="_pH0yT8YcncMFwHLvWkE-12" value="Uses" style="text;html=1;strokeColor=none;fillColor=none;align=center;verticalAlign=middle;whiteSpace=wrap;rounded=0;" vertex="1" parent="1">
          <mxGeometry x="410" y="300" width="60" height="30" as="geometry" />
        </mxCell>
        <mxCell id="_pH0yT8YcncMFwHLvWkE-13" value="Call API" style="text;html=1;strokeColor=none;fillColor=none;align=center;verticalAlign=middle;whiteSpace=wrap;rounded=0;" vertex="1" parent="1">
          <mxGeometry x="190" y="170" width="60" height="30" as="geometry" />
        </mxCell>
      </root>
    </mxGraphModel>
  </diagram>
</mxfile>
